<svg xmlns="http://www.w3.org/2000/svg" width="768" height="128" viewBox="0 0 768 128">
  <path d="M64 0L0 64c0 12.1 3.4 23.9 9.9 34.1L64 44V0zm0 81l-36 35.9c10.6 7.2 23.1 11.1 36 11.1V81z" opacity=".9"/>
  <path d="M64 0l64 64c0 12.1-3.4 23.9-9.9 34.1L64 44V0zm0 81l35.9 35.9C89.4 124.2 76.8 128 64 128V81z"/>
  <g>
    <path d="M170.3 116.7L211 28.4c.4-.9 1.3-1.5 2.2-1.4h1.3c1-.1 1.9.5 2.2 1.4l40.4 88.2c.6 1.1.2 2.5-.9 3.1-.4.2-.8.3-1.3.3h-11.4c-2 0-2.9-.8-3.8-2.6l-6.4-14.2h-39.2l-6.4 14.2c-.6 1.6-2.1 2.7-3.8 2.6h-11.4c-1.3.1-2.4-.8-2.5-2.1 0-.4 0-.8.3-1.2m56.6-27.9L213.8 60h-.4l-12.9 28.8h26.4zM279 30.8c0-1.4 1.1-2.5 2.5-2.5H319c15.7-.1 28.5 12.5 28.6 28.2 0 12.1-8 21.9-19.4 26.5l18 33.3c.7 1.2.4 2.7-.8 3.4-.4.3-.9.4-1.5.4h-13.8c-.9 0-1.7-.4-2.1-1.2l-17.4-34.7H296v33.4c0 1.4-1.1 2.4-2.5 2.5h-12.1c-1.4 0-2.5-1.1-2.5-2.5V30.8zm38.5 39.3c7.2-.2 13-6.1 13-13.4-.2-7.1-5.9-12.7-13-12.7h-21.4v26.1h21.4zM388.4 44h-20.1c-1.4 0-2.5-1.1-2.5-2.5V30.8c0-1.4 1.1-2.5 2.5-2.5h57.3c1.4 0 2.5 1.1 2.5 2.5v10.8c0 1.4-1.1 2.5-2.5 2.5h-20.1v73.6c0 1.4-1.1 2.4-2.5 2.5h-12.2c-1.4 0-2.4-1.1-2.5-2.5V44zM451.6 30.8c0-1.4 1.1-2.5 2.5-2.5h53.4c1.4 0 2.5 1.1 2.5 2.5v10.8c0 1.4-1.1 2.5-2.5 2.5h-38.8v21.5h32.4c1.4 0 2.4 1.1 2.5 2.5V79c0 1.4-1.1 2.5-2.5 2.5h-32.4v22.9h38.8c1.4 0 2.5 1.1 2.5 2.5v10.8c0 1.4-1.1 2.5-2.5 2.5h-53.4c-1.4 0-2.5-1.1-2.5-2.5V30.8zM548.1 29c.1-1.2 1.2-2.1 2.4-2h2.1c.9 0 1.8.5 2.2 1.3l28.8 61.9h.4l28.8-61.9c.4-.9 1.3-1.4 2.2-1.3h2.1c1.2-.1 2.2.8 2.4 2l15.5 88.1c.4 1.2-.2 2.5-1.4 2.9-.3.1-.6.1-1 .1h-11.9c-1.2-.1-2.1-.9-2.5-2l-7.7-49.7h-.4L587.2 120c-.3.9-1.2 1.5-2.2 1.4h-2.4c-1 0-1.9-.5-2.2-1.4l-23.2-51.5h-.4l-7.6 49.7c-.3 1.1-1.2 1.9-2.4 2H535c-1.3.1-2.5-.9-2.6-2.2 0-.3 0-.5.1-.8L548.1 29zM665.3 28.3h12.2c1.4 0 2.5 1.1 2.5 2.5v86.8c0 1.4-1.1 2.5-2.5 2.5h-12.2c-1.4 0-2.5-1.1-2.5-2.5V30.8c0-1.4 1.2-2.5 2.5-2.5zM708.3 107.2l4.7-8.1c.8-1.5 2.7-2 4.1-1.1.1.1.2.1.3.2.7.4 11.3 8.1 19.8 8.1 6.8 0 11.9-4.5 11.9-10.1 0-6.7-5.6-11.3-16.7-15.7-12.3-5-24.7-12.8-24.7-28.3 0-11.7 8.7-25.2 29.5-25.2 13.4 0 23.6 6.8 26.2 8.8 1.3 1 1.7 2.9.8 4.3l-5 7.5c-1 1.6-3 2.6-4.6 1.6-1-.7-11-7.2-18.2-7.2-7.5 0-11.5 5-11.5 9.2 0 6.2 4.9 10.4 15.5 14.7 12.7 5.1 27.4 12.7 27.4 29.6 0 13.5-11.7 26-30.2 26-16.5 0-26.2-7.7-28.8-10.2-1-1.3-1.6-2-.5-4.1"/>
  </g>
</svg>
